# xmcd CD database file
#
# Track frame offsets:
#	150
#	11962
#	23025
#	35903
#	50743
#	63627
#	76074
#	86814
#	100260
#	111702
#	123717
#	139057
#	152289
#	165500
#	177744
#	191314
#	201856
#	214193
#	226109
#
# Disc length: 3221 seconds
#
# Revision: 1
# Processed by: cddbd v1.5.2PL0 Copyright (c) Steve Scherf et al.
# Submitted via: CDex 1.51
#
DISCID=100c9313
DTITLE=Sonny Boy Williamson II - Down And Out Blues
DYEAR=1900
DGENRE=Blues
TTITLE0=Don't Start Me Talkin'
TTITLE1=I Don't Know
TTITLE2=All My Love In Vain
TTITLE3=The Key
TTITLE4=Keep It To Yourself
TTITLE5=Dissatisfied
TTITLE6=Fattening Frogs For Snakes
TTITLE7=Wake Up Baby
TTITLE8=Your Funeral And My Trial
TTITLE9="99"
TTITLE10=Cross My Heart
TTITLE11=Let Me Explain
TTITLE12=I Don't Know (Alternative Take)
TTITLE13=Fattening Frogs For Snakes (Alternative Take)
TTITLE14=Your Imagination
TTITLE15=Let Your Conscience Be Your Guide
TTITLE16=Trust My Baby
TTITLE17=Bye Bye Bird
TTITLE18=My Younger Days
EXTD=
EXTT0=
EXTT1=
EXTT2=
EXTT3=
EXTT4=
EXTT5=
EXTT6=
EXTT7=
EXTT8=
EXTT9=
EXTT10=
EXTT11=
EXTT12=
EXTT13=
EXTT14=
EXTT15=
EXTT16=
EXTT17=
EXTT18=
PLAYORDER=
